<svg xmlns="http://www.w3.org/2000/svg" viewBox="0 0 512 512"><path d="M503.7 66.8v290.8H8.3V66.8c0-18 14.5-32.4 32.5-32.4h430.4c18 0 32.5 14.5 32.5 32.4z" fill="#B8E9F2"/><path d="M503.7 352L490 416H24.6l-15-64z" fill="#dfeaf4"/><path d="M503.7 66.8v290.8H207L339.8 34.4h131.5c18 0 32.5 14.5 32.5 32.4z" fill="#D4F7FC"/><path fill="#CCD8E5" d="M343.5 480.2h-175L181 451l15.2-35.4h119.6L331 451"/><path d="M352.2 167.5c0 66.6-42 123.5-100.7 145.7-7.6-2.8-15-6.3-22-10.3-47-27-78.7-77.5-78.7-135.5 0-22 4.6-43 12.8-62l88-21.2L313 99l26.3 6.4c8.3 19 13 40 13 62z" fill="#93C93F"/><path d="M352.2 167.5c0 66.6-42 123.5-100.7 145.7v-229l61.6 15 26.3 6.3c8.3 19 13 40 13 62z" fill="#89B240"/><path d="M251.5 320.3c-1 0-2-.2-3-.5-30.8-11.7-57.2-32.2-76.3-59.3-19.5-27.7-29.8-60.3-29.8-94.3 0-22.7 4.6-44.6 13.6-65.3 1-2.5 3-4.3 5.7-5l87.8-21c1.3-.4 2.7-.4 4 0l87.8 21c2.5.7 4.6 2.5 5.7 5 4.4 10 7.8 20.7 10 31.5 1 4.5-2 9-6.4 9.8-4.5 1-9-2-10-6.4-1.6-8.5-4-16.7-7.3-24.7l-81.8-19.7-81.8 19.7c-7 17.5-10.6 36-10.6 55 0 30.5 9.3 59.8 27 84.6 16.4 23.4 39 41.4 65.5 52 26.4-10.6 49-28.6 65.6-52 17.6-25 27-54.2 27-84.8 0-4.6 3.6-8.3 8.2-8.3s8.3 3.6 8.3 8.2c0 34-10.3 66.6-29.8 94.3-19 27-45.4 47.6-76.3 59.3-1 .3-2 .5-3 .5z"/><path d="M246.5 245c-2.8 0-5.5-1.5-7-4l-32-50c-2.6-4-1.5-9 2.4-11.6 3.8-2.4 9-1.3 11.4 2.6l24 37.4 32.8-70.7c2-4.2 7-6 11-4 4.2 2 6 6.8 4 11L254 240.2c-1.2 2.7-4 4.5-7 4.8h-.5z"/><path d="M471.2 24.8H40.8C18.3 24.8 0 43 0 65.5v59.2c0 4.6 3.7 8.4 8.3 8.4s8.4-3.7 8.4-8.3V65.5c0-13.3 10.8-24 24-24h430.5c13.3 0 24 10.7 24 24V350h-52c-4.7 0-8.4 3.7-8.4 8.3s3.7 8.3 8.3 8.3h52.3V382c0 13.2-10.8 24-24 24H40.7c-13.3 0-24-10.8-24-24v-15.4h398.6c4.6 0 8.3-3.7 8.3-8.3s-3.7-8.4-8.3-8.4H16.7V152.4c0-4.6-3.8-8.3-8.4-8.3S0 148 0 152.5V382c0 22.3 18.3 40.6 40.8 40.6h142.7l-20.5 48h-40c-4.6 0-8.3 3.7-8.3 8.3s3.7 8.2 8.3 8.2h266c4.6 0 8.3-3.7 8.3-8.3s-3.7-8.4-8.3-8.4h-40l-20.5-48h142.7c22.5 0 40.8-18.3 40.8-40.7V65.4c0-22.5-18.3-40.7-40.8-40.7zM330.8 470.6H181.2l14.2-33.3h121.2l14.2 33.3z"/><path d="M254 376.2c-3.5 1-6 4-6.3 7.7-.4 7.4 9 11.5 14.3 6 2.7-2.7 3-7 1-10.3-2-3-5.7-4.3-9-3.5z"/></svg>